<?xml version="1.0" encoding="utf-8"?>
<!-- Generator: Adobe Illustrator 16.0.0, SVG Export Plug-In . SVG Version: 6.00 Build 0)  -->
<!DOCTYPE svg PUBLIC "-//W3C//DTD SVG 1.1//EN" "http://www.w3.org/Graphics/SVG/1.1/DTD/svg11.dtd" [
	<!ENTITY ns_flows "http://ns.adobe.com/Flows/1.0/">
	<!ENTITY ns_extend "http://ns.adobe.com/Extensibility/1.0/">
	<!ENTITY ns_ai "http://ns.adobe.com/AdobeIllustrator/10.0/">
	<!ENTITY ns_graphs "http://ns.adobe.com/Graphs/1.0/">
]>
<svg version="1.1" id="art" xmlns:x="&ns_extend;" xmlns:i="&ns_ai;" xmlns:graph="&ns_graphs;"
	 xmlns="http://www.w3.org/2000/svg" xmlns:xlink="http://www.w3.org/1999/xlink" xmlns:a="http://ns.adobe.com/AdobeSVGViewerExtensions/3.0/"
	 x="0px" y="0px" width="157.9px" height="162.7px" viewBox="0 0 157.9 162.7" style="enable-background:new 0 0 157.9 162.7;"
	 xml:space="preserve">
<style type="text/css">
<![CDATA[
	.st0{fill:none;stroke:#FFFFFF;stroke-width:2;stroke-linecap:round;stroke-linejoin:round;stroke-miterlimit:10;}
]]>
</style>
<g>
	<path class="st0" d="M90.6,16.8c27,4.8,49,24.4,57,50.2"/>
	<path class="st0" d="M33,146.3C15.9,133,4.8,112.1,4.8,88.7c0-11.7,2.8-22.8,7.6-32.6"/>
	<path class="st0" d="M149.7,76c0.7,4.1,1.1,8.3,1.1,12.7c0,40.3-32.7,73-73,73c-12.7,0-24.6-3.2-35-8.9"/>
	<line class="st0" x1="60.8" y1="136.7" x2="60.8" y2="146.7"/>
	<line class="st0" x1="55.8" y1="141.7" x2="65.8" y2="141.7"/>
	<line class="st0" x1="125.8" y1="49.7" x2="125.8" y2="57.7"/>
	<line class="st0" x1="121.8" y1="53.7" x2="129.8" y2="53.7"/>
	<line class="st0" x1="71.8" y1="148.7" x2="71.8" y2="152.7"/>
	<line class="st0" x1="69.8" y1="150.7" x2="73.8" y2="150.7"/>
	<path class="st0" d="M38.1,60.7l69.1-11.5c0,0,14.3,49.6-21.1,86.6C86,135.8,45.1,124.4,38.1,60.7z"/>
	<path class="st0" d="M63,100.8c0,0,8.6,21.5,19.5,19.7s13.1-25.1,13.1-25.1s-6.3,12.5-14.9,14C72.1,110.8,63,100.8,63,100.8z"/>
	<path class="st0" d="M83.1,88.3c0,0,5.1-34.1,18.7-15.1C107.5,81.2,90.8,64.7,83.1,88.3z"/>
	<path class="st0" d="M73.7,89.8c0,0-15.9-30.7-22.6-8.3C48.3,91,58.8,70,73.7,89.8z"/>
	<line class="st0" x1="107.1" y1="49.2" x2="113.1" y2="48.2"/>
	<line class="st0" x1="38.1" y1="60.7" x2="29.2" y2="62.2"/>
	<line class="st0" x1="105.4" y1="38.6" x2="107.7" y2="50.9"/>
	<line class="st0" x1="36.9" y1="55" x2="38.7" y2="64.4"/>
	<line class="st0" x1="86" y1="135.8" x2="80" y2="141.4"/>
	<line class="st0" x1="86" y1="135.8" x2="89.4" y2="137.6"/>
	<path class="st0" d="M119.8,109.7c0,0-8.3,1.3-7.5,13s-9.8,11.8-9.8,11.8s11.6,3.4,16.6-6.9c0,0,0.4,2.6-2.3,7c0,0,14-6.8,13-19.3
		C129.8,115.2,127.8,112.1,119.8,109.7z"/>
	<path class="st0" d="M121.7,106.2l10.8-15l6.8,4.5l-7.2,16.7C132.2,112.4,126.3,107.5,121.7,106.2z"/>
	<path class="st0" d="M132.5,91.2l21.3-33.5c0,0,2-3,3,0s-17.5,38-17.5,38L132.5,91.2z"/>
	
		<rect x="34.6" y="153.2" transform="matrix(-0.9839 0.1789 -0.1789 -0.9839 105.2049 304.3251)" class="st0" width="8.5" height="7.5"/>
	
		<rect x="32.5" y="137.4" transform="matrix(-0.9839 0.1789 -0.1789 -0.9839 98.9932 281.8471)" class="st0" width="8.5" height="16"/>
	<polygon class="st0" points="24.7,78.9 31.6,93.9 23.5,95.3 	"/>
	
		<rect x="27.2" y="94.2" transform="matrix(-0.9839 0.1789 -0.1789 -0.9839 83.1678 224.6347)" class="st0" width="8.5" height="43.6"/>
	<g>
		<rect x="-1.2" y="22.7" transform="matrix(0.8937 -0.4486 0.4486 0.8937 -8.1276 25.0568)" class="st0" width="100" height="14"/>
		<line class="st0" x1="85.5" y1="11.3" x2="88.6" y2="17.5"/>
		<line class="st0" x1="79.7" y1="17.6" x2="81.5" y2="21.1"/>
		<line class="st0" x1="72.5" y1="21.2" x2="74.3" y2="24.7"/>
		<line class="st0" x1="65.4" y1="24.7" x2="67.2" y2="28.3"/>
		<line class="st0" x1="56.9" y1="25.6" x2="60" y2="31.9"/>
		<line class="st0" x1="51.1" y1="31.9" x2="52.9" y2="35.5"/>
		<line class="st0" x1="43.9" y1="35.5" x2="45.7" y2="39.1"/>
		<line class="st0" x1="36.8" y1="39.1" x2="38.6" y2="42.7"/>
		<line class="st0" x1="27.4" y1="40.5" x2="30.5" y2="46.7"/>
		<line class="st0" x1="21.6" y1="46.7" x2="23.4" y2="50.3"/>
		<line class="st0" x1="14.4" y1="50.3" x2="16.2" y2="53.9"/>
	</g>
</g>
</svg>
