<?xml version="1.0" encoding="utf-8"?>
<!-- Generator: Adobe Illustrator 16.0.0, SVG Export Plug-In . SVG Version: 6.00 Build 0)  -->
<!DOCTYPE svg PUBLIC "-//W3C//DTD SVG 1.1//EN" "http://www.w3.org/Graphics/SVG/1.1/DTD/svg11.dtd" [
	<!ENTITY ns_flows "http://ns.adobe.com/Flows/1.0/">
	<!ENTITY ns_extend "http://ns.adobe.com/Extensibility/1.0/">
	<!ENTITY ns_ai "http://ns.adobe.com/AdobeIllustrator/10.0/">
	<!ENTITY ns_graphs "http://ns.adobe.com/Graphs/1.0/">
]>
<svg version="1.1" id="Isolation_Mode" xmlns:x="&ns_extend;" xmlns:i="&ns_ai;" xmlns:graph="&ns_graphs;"
	 xmlns="http://www.w3.org/2000/svg" xmlns:xlink="http://www.w3.org/1999/xlink" xmlns:a="http://ns.adobe.com/AdobeSVGViewerExtensions/3.0/"
	 x="0px" y="0px" width="173px" height="141.7px" viewBox="0 0 173 141.7" style="enable-background:new 0 0 173 141.7;"
	 xml:space="preserve">
<style type="text/css">
<![CDATA[
	.st0{fill:none;stroke:#FFFFFF;stroke-miterlimit:10;}
]]>
</style>
<g>
	<path class="st0" d="M56.3,48.5c0,0,9.5-9.8,20.8-9.8c3.1,0,8.3,0.3,14.5,0.6l5.9-22.6c4.4-10.6,13.6-13,20.5-12.7
		c-9.8-2.3-20.4-3.6-31.5-3.6c-47.5,0-86,23.1-86,51.7c0,26.1,32.3,47.7,74.2,51.2l14.1-53.6C79.9,49.3,69.7,48.9,56.3,48.5z"/>
	<path class="st0" d="M125.7,6.2c6.4,3.8,12.1,12.8,12.1,12.8L125,26c-7-25.3-12.5-9-12.5-9l-5.9,23.2c13.8,0.7,28.1,1.1,34.7-0.2
		c0,0-4.5,10.8-22.8,10.8c-5,0-9.7-0.1-14.6-0.3l-13.7,53.4c0,0,0.1,0,0.1,0l-9.6,35.4l27-37c37.2-5.7,64.8-26,64.8-50.1
		C172.5,32.1,153.5,14.7,125.7,6.2z"/>
</g>
</svg>
