<?xml version="1.0" encoding="utf-8"?>
<!-- Generator: Adobe Illustrator 16.0.0, SVG Export Plug-In . SVG Version: 6.00 Build 0)  -->
<!DOCTYPE svg PUBLIC "-//W3C//DTD SVG 1.1//EN" "http://www.w3.org/Graphics/SVG/1.1/DTD/svg11.dtd" [
	<!ENTITY ns_flows "http://ns.adobe.com/Flows/1.0/">
	<!ENTITY ns_extend "http://ns.adobe.com/Extensibility/1.0/">
	<!ENTITY ns_ai "http://ns.adobe.com/AdobeIllustrator/10.0/">
	<!ENTITY ns_graphs "http://ns.adobe.com/Graphs/1.0/">
]>
<svg version="1.1" id="marketing" xmlns:x="&ns_extend;" xmlns:i="&ns_ai;" xmlns:graph="&ns_graphs;"
	 xmlns="http://www.w3.org/2000/svg" xmlns:xlink="http://www.w3.org/1999/xlink" xmlns:a="http://ns.adobe.com/AdobeSVGViewerExtensions/3.0/"
	 x="0px" y="0px" width="179.5px" height="166.8px" viewBox="0 0 179.5 166.8" style="enable-background:new 0 0 179.5 166.8;"
	 xml:space="preserve">
<style type="text/css">
<![CDATA[
	.st0{fill:none;stroke:#FFFFFF;stroke-width:2;stroke-linecap:round;stroke-linejoin:round;stroke-miterlimit:10;}
]]>
</style>
<g>
	<path class="st0" d="M147,90.9c-1.3,39.2-33.5,70.5-73,70.5c-4.1,0-8.1-0.3-12-1"/>
	<path class="st0" d="M103.8,21.8c12.5,5.6,23.1,14.6,30.7,25.8"/>
	<path class="st0" d="M15.2,131.7C6.3,119.6,1,104.6,1,88.4c0-34.7,24.3-63.8,56.8-71.2"/>
	<path class="st0" d="M122.3,92.5c0.8,1.7,0,3.8-1.7,4.6l-0.4,0.2c-1.7,0.8-3.8,0-4.6-1.7l-8.8-19.2c-0.8-1.7,0-3.8,1.7-4.6l0.4-0.2
		c1.7-0.8,3.8,0,4.6,1.7L122.3,92.5z"/>
	<path class="st0" d="M166.9,93.5c0.8,1.7,0,3.8-1.7,4.6l-0.4,0.2c-1.7,0.8-3.8,0-4.6-1.7L135.3,42c-0.8-1.7,0-3.8,1.7-4.6l0.4-0.2
		c1.7-0.8,3.8,0,4.6,1.7L166.9,93.5z"/>
	<path class="st0" d="M112.6,71.3l3.5,7.7l3.5,7.7l3.5,7.7c0,0,19-11.1,36.9,1.9l-10.6-23.2l-3.5-7.7l-10.6-23.2
		C133.5,64.2,112.6,71.3,112.6,71.3z"/>
	<path class="st0" d="M90.3,81.5l-0.2,0.1l-0.2,0.1c-1.8,0.8-2.1,2.7-1.3,4.5l7.4,16.3c0.8,1.8,2.7,3.3,4.5,2.5l0.2-0.1l0.2-0.1
		l15.7-7.2L106,74.3L90.3,81.5z"/>
	<path class="st0" d="M28.3,110.9c0,0-0.9-10.4-1.7-13.9c-1.7-8-11-30.8-11-30.8s-5.7-7.9,0-10.5s32.7-14.3,32.7-14.3
		s-1.1-7.3,4.7-7.3c10,0,11,9.1,9.3,12.6c-1.1,2.4-6.8,8.3-6.8,8.3L67,74.9L61.9,97l-12.5-0.6l3.6,8.7l4.7,10.5L28.3,110.9z"/>
	<polygon class="st0" points="102.4,108.6 116.6,101.9 115.6,118.2 110.6,128 102.5,130.2 	"/>
	<path class="st0" d="M28.3,110.9c0,0-16.4,20-15.5,27.9c1.4,11.2,24.8,26.8,36.1,26.9C64,165.9,98,130.7,98,130.7v-14.1
		c0,0-29,21.8-43.1,24.8c-4.1,0.9-11.6-12.2-11.6-12.2"/>
	<path class="st0" d="M59.3,61.3l17-29.8l7,6.3c0,0-11.1,46.1-12,62c-0.5,8.4,1.7,33.5,1.7,33.5"/>
	<path class="st0" d="M77.5,28.9L81,13.8c0,0,2.9,3.8,3.2,5.3c0.3,1.6-0.9,6.7-0.9,6.7l2.2,4.6"/>
	<path class="st0" d="M75.7,24.4c0,0-6.3-8.3-17.9-7.2c0,0,9.4-11.3,19.7-12.8c6.4-0.9,15.5,7.7,26.3,17.4c0,0-7.1-0.3-9.1,13.8
		c0,0-2.8-3.9-6.1-5.1"/>
	<line class="st0" x1="86" y1="35.6" x2="87.5" y2="34.1"/>
	<line class="st0" x1="172" y1="79.5" x2="178" y2="79.4"/>
	<line class="st0" x1="156.7" y1="46.9" x2="161.8" y2="38.4"/>
	<line class="st0" x1="163.8" y1="57" x2="169.7" y2="53.4"/>
	<line class="st0" x1="167.5" y1="68.4" x2="178.5" y2="63.5"/>
	<line class="st0" x1="122" y1="10" x2="122" y2="20"/>
	<line class="st0" x1="117" y1="15" x2="127" y2="15"/>
	<line class="st0" x1="47" y1="1" x2="47" y2="9"/>
	<line class="st0" x1="43" y1="5" x2="51" y2="5"/>
	<line class="st0" x1="102" y1="1" x2="102" y2="5"/>
	<line class="st0" x1="100" y1="3" x2="104" y2="3"/>
</g>
</svg>
